<mxfile host="app.diagrams.net" modified="2023-01-08T22:52:52.963Z" agent="5.0 (Macintosh)" etag="GeHlyJUPjFrgfJE0oIgB" version="20.8.3" type="github">
  <diagram id="lYkciCjZ0IYru6rV7Du3" name="Page-1">
    <mxGraphModel dx="1897" dy="1761" grid="1" gridSize="10" guides="1" tooltips="1" connect="1" arrows="1" fold="1" page="1" pageScale="1" pageWidth="827" pageHeight="1169" math="0" shadow="0">
      <root>
        <mxCell id="0" />
        <mxCell id="1" parent="0" />
        <mxCell id="1JWr65DzDC-_oeMy7qy--1" value="" style="verticalLabelPosition=bottom;html=1;verticalAlign=top;align=center;shape=mxgraph.floorplan.wall;fillColor=strokeColor;" parent="1" vertex="1">
          <mxGeometry x="80" y="30" width="590" height="10" as="geometry" />
        </mxCell>
        <mxCell id="1JWr65DzDC-_oeMy7qy--2" value="" style="verticalLabelPosition=bottom;html=1;verticalAlign=top;align=center;shape=mxgraph.floorplan.wallCorner;fillColor=strokeColor;direction=south;" parent="1" vertex="1">
          <mxGeometry x="670" y="30" width="100" height="90" as="geometry" />
        </mxCell>
        <mxCell id="1JWr65DzDC-_oeMy7qy--3" value="" style="verticalLabelPosition=bottom;html=1;verticalAlign=top;align=center;shape=mxgraph.floorplan.windowGlider;dx=0.25;direction=south;" parent="1" vertex="1">
          <mxGeometry x="760" y="120" width="10" height="100" as="geometry" />
        </mxCell>
        <mxCell id="1JWr65DzDC-_oeMy7qy--4" value="" style="verticalLabelPosition=bottom;html=1;verticalAlign=top;align=center;shape=mxgraph.floorplan.doorRight;aspect=fixed;direction=south;" parent="1" vertex="1">
          <mxGeometry x="685" y="130" width="85" height="80" as="geometry" />
        </mxCell>
        <mxCell id="1JWr65DzDC-_oeMy7qy--5" value="" style="verticalLabelPosition=bottom;html=1;verticalAlign=top;align=center;shape=mxgraph.floorplan.wall;fillColor=strokeColor;direction=south;" parent="1" vertex="1">
          <mxGeometry x="760" y="220" width="10" height="580" as="geometry" />
        </mxCell>
        <mxCell id="1JWr65DzDC-_oeMy7qy--6" value="" style="verticalLabelPosition=bottom;html=1;verticalAlign=top;align=center;shape=mxgraph.floorplan.wallCorner;fillColor=strokeColor;direction=west" parent="1" vertex="1">
          <mxGeometry x="680" y="800" width="90" height="90" as="geometry" />
        </mxCell>
        <mxCell id="1JWr65DzDC-_oeMy7qy--7" value="" style="verticalLabelPosition=bottom;html=1;verticalAlign=top;align=center;shape=mxgraph.floorplan.wallCorner;fillColor=strokeColor;direction=north" parent="1" vertex="1">
          <mxGeometry x="70" y="720" width="90" height="170" as="geometry" />
        </mxCell>
        <mxCell id="1JWr65DzDC-_oeMy7qy--8" value="" style="verticalLabelPosition=bottom;html=1;verticalAlign=top;align=center;shape=mxgraph.floorplan.windowBow;strokeWidth=3;" parent="1" vertex="1">
          <mxGeometry x="150" y="880" width="530" height="120" as="geometry" />
        </mxCell>
        <mxCell id="1JWr65DzDC-_oeMy7qy--9" value="" style="verticalLabelPosition=bottom;html=1;verticalAlign=top;align=center;shape=mxgraph.floorplan.wallCorner;fillColor=strokeColor;direction=west" parent="1" vertex="1">
          <mxGeometry x="70" y="710" width="60" height="10" as="geometry" />
        </mxCell>
        <mxCell id="1JWr65DzDC-_oeMy7qy--11" value="" style="verticalLabelPosition=bottom;html=1;verticalAlign=top;align=center;shape=mxgraph.floorplan.wallCorner;fillColor=strokeColor;" parent="1" vertex="1">
          <mxGeometry x="70" y="30" width="35" height="160" as="geometry" />
        </mxCell>
        <mxCell id="1JWr65DzDC-_oeMy7qy--12" value="" style="verticalLabelPosition=bottom;html=1;verticalAlign=top;align=center;shape=mxgraph.floorplan.wallCorner;fillColor=strokeColor;direction=north" parent="1" vertex="1">
          <mxGeometry x="70" y="190" width="70" height="30" as="geometry" />
        </mxCell>
        <mxCell id="1JWr65DzDC-_oeMy7qy--13" value="" style="verticalLabelPosition=bottom;html=1;verticalAlign=top;align=center;shape=mxgraph.floorplan.wall;fillColor=strokeColor;direction=south;" parent="1" vertex="1">
          <mxGeometry x="130" y="220" width="10" height="500" as="geometry" />
        </mxCell>
        <mxCell id="1JWr65DzDC-_oeMy7qy--14" value="" style="verticalLabelPosition=bottom;html=1;verticalAlign=top;align=center;shape=mxgraph.floorplan.bookcase;" parent="1" vertex="1">
          <mxGeometry x="360" y="50" width="200" height="30" as="geometry" />
        </mxCell>
        <mxCell id="1JWr65DzDC-_oeMy7qy--15" value="" style="verticalLabelPosition=bottom;html=1;verticalAlign=top;align=center;shape=mxgraph.floorplan.table;direction=south;" parent="1" vertex="1">
          <mxGeometry x="140" y="250" width="100" height="430" as="geometry" />
        </mxCell>
      </root>
    </mxGraphModel>
  </diagram>
</mxfile>
